<?xml version="1.0" encoding="utf-8"?>
<!-- Generator: Adobe Illustrator 23.0.0, SVG Export Plug-In . SVG Version: 6.00 Build 0)  -->
<svg version="1.1" id="Layer_1" xmlns="http://www.w3.org/2000/svg" xmlns:xlink="http://www.w3.org/1999/xlink" x="0px" y="0px"
	 viewBox="0 0 36 36" enable-background="new 0 0 36 36" xml:space="preserve">
<g>
	<path fill="none" stroke="#000000" stroke-width="2" stroke-miterlimit="10" d="M17.8,1.6c0.3,0,0.5,0.1,0.6,0.3
		c0.5,0.5,1,1,1.5,1.5c1,1,1.9,1.9,2.9,2.9c0.1,0.1,0.1,0.1,0.2,0.2c0.3,0.3,0.3,0.6,0,0.9c-0.2,0.2-0.4,0.4-0.7,0.7
		c-1.2,1.2-2.5,2.5-3.7,3.7c-0.2,0.2-0.4,0.4-0.6,0.5c0,0-0.2,0-0.2,0c-0.2-0.2-0.5-0.4-0.7-0.6c-1.4-1.4-2.8-2.8-4.2-4.1
		c-0.1-0.1-0.2-0.2-0.2-0.3c-0.2-0.3-0.2-0.6,0-0.8c0.3-0.3,0.6-0.6,0.9-0.9C14.7,4.4,15.9,3.2,17,2C17.3,1.8,17.5,1.6,17.8,1.6z"/>
	<path fill="none" stroke="#000000" stroke-width="2" stroke-miterlimit="10" d="M29.1,23.7c-0.1-0.1-0.3-0.1-0.4-0.3
		c-0.3-0.3-0.5-0.5-0.8-0.8c-1.1-1.1-2.3-2.3-3.4-3.4c0,0-0.1-0.1-0.1-0.1c-0.5-0.5-0.5-1,0-1.5c0.4-0.4,0.7-0.7,1.1-1.1
		c1-1,1.9-1.9,2.9-2.9c0.2-0.2,0.5-0.4,0.8-0.5c0,0,0.1,0,0.2,0c0.5,0.2,0.9,0.6,1.3,1c1.2,1.1,2.3,2.3,3.5,3.4c0,0,0,0,0,0
		c0.5,0.5,0.5,1,0,1.5c-0.7,0.7-1.5,1.5-2.2,2.2c-0.7,0.7-1.3,1.3-2,2C29.7,23.5,29.5,23.7,29.1,23.7z"/>
	<path fill="none" stroke="#000000" stroke-width="2" stroke-miterlimit="10" d="M23.5,26.8c0-0.6,0-1.3,0-1.9
		c0-0.6,0.3-0.9,0.9-0.9c0.6,0,1.3,0,1.9,0c0.6,0,1.2,0,1.8,0c0.6,0,0.9,0.3,0.9,0.9c0,0.6,0,1.2,0,1.7c0,0.6,0.1,1.2,0.1,1.9
		c0,0.7-0.3,1-1,1c-1,0-2.1,0-3.1,0c-0.2,0-0.5,0-0.7,0c-0.5,0-0.8-0.3-0.8-0.8C23.5,28.1,23.5,27.4,23.5,26.8z"/>
	<path fill="none" stroke="#000000" stroke-width="2" stroke-miterlimit="10" d="M29,9.8c0,0.6,0,1.3,0,1.9c0,0.6-0.3,0.9-0.9,0.9
		c-1,0-2.1,0-3.1,0c-0.3,0-0.5,0-0.8,0c-0.4,0-0.7-0.3-0.7-0.7c0-0.3,0-0.7,0-1c0-0.9,0-1.9,0-2.8c0-0.5,0.4-0.9,0.9-0.9
		c0.6,0,1.3,0,1.9,0c0.3,0,0.6,0,0.9,0c0.3,0,0.7,0,1,0c0.4,0,0.7,0.4,0.7,0.7C29,8.5,29,9.2,29,9.8C29,9.8,29,9.8,29,9.8z"/>
	<path fill="none" stroke="#000000" stroke-width="2" stroke-miterlimit="10" d="M6.6,9.7c0-0.6,0-1.3,0-1.9c0-0.6,0.3-0.9,0.9-0.9
		c1.2,0,2.4,0,3.6,0c0.6,0,1.1,0.5,1.1,1.1c0,1.2,0,2.3,0,3.5c0,0.5-0.4,0.9-0.9,0.9c-0.7,0-1.4,0-2.2,0c-0.6,0-1.1,0-1.7,0
		c-0.5,0-0.8-0.3-0.8-0.8C6.6,11,6.6,10.3,6.6,9.7C6.6,9.7,6.6,9.7,6.6,9.7z"/>
	<path fill="none" stroke="#000000" stroke-width="2" stroke-miterlimit="10" d="M29.4,24.2c1.1,0,2.1,0,3.2,0c0.8,0,0.9,0.3,0.7,1
		c-0.1,0.4-0.3,0.8-0.4,1.2c-0.3,0.6-0.7,0.7-1.2,0.2c-0.6-0.6-1.2-1.2-1.9-1.9C29.7,24.6,29.6,24.4,29.4,24.2z"/>
	<path fill="none" stroke="#000000" stroke-width="2" stroke-miterlimit="10" d="M6.3,24c-1.1,0-2.1,0-3.2,0c-0.8,0-0.9,0.3-0.7,1
		c0.1,0.4,0.3,0.8,0.4,1.2C3.1,26.9,3.5,27,4,26.5c0.6-0.6,1.2-1.2,1.9-1.9C6,24.5,6.1,24.3,6.3,24z"/>
	<path fill="none" stroke="#000000" stroke-width="2" stroke-miterlimit="10" d="M6.2,12.4c-1.1,0-2.1,0-3.2,0c-0.8,0-0.9-0.3-0.7-1
		c0.1-0.4,0.3-0.8,0.4-1.2C3,9.6,3.4,9.5,3.9,10c0.6,0.6,1.2,1.2,1.9,1.9C5.9,12,6,12.2,6.2,12.4z"/>
	<path fill="none" stroke="#000000" stroke-width="2" stroke-miterlimit="10" d="M29.4,12.5c1.1,0,2.1,0,3.2,0c0.8,0,0.9-0.3,0.7-1
		c-0.1-0.4-0.3-0.8-0.4-1.2c-0.3-0.6-0.7-0.7-1.2-0.2c-0.6,0.6-1.2,1.2-1.9,1.9C29.7,12,29.6,12.2,29.4,12.5z"/>
	<path fill="none" stroke="#000000" stroke-width="2" stroke-miterlimit="10" d="M23.7,6.5c0-1.1,0-2.1,0-3.2c0-0.8,0.3-0.9,1-0.7
		c0.4,0.1,0.8,0.3,1.2,0.4c0.6,0.3,0.7,0.7,0.2,1.2c-0.6,0.6-1.2,1.2-1.9,1.9C24.1,6.3,23.9,6.4,23.7,6.5z"/>
	<path fill="none" stroke="#000000" stroke-width="2" stroke-miterlimit="10" d="M12,6.7c0-1.1,0-2.1,0-3.2c0-0.8-0.3-0.9-1-0.7
		C10.6,3,10.2,3.1,9.8,3.3C9.2,3.6,9.1,4,9.6,4.5c0.6,0.6,1.2,1.2,1.9,1.9C11.6,6.5,11.8,6.6,12,6.7z"/>
	<path fill="none" stroke="#000000" stroke-width="2" stroke-miterlimit="10" d="M12,29.9c0,1.1,0,2.1,0,3.2c0,0.8-0.3,0.9-1,0.7
		c-0.4-0.1-0.8-0.3-1.2-0.4c-0.6-0.3-0.7-0.7-0.2-1.2c0.6-0.6,1.2-1.2,1.9-1.9C11.6,30.2,11.8,30.1,12,29.9z"/>
	<path fill="none" stroke="#000000" stroke-width="2" stroke-miterlimit="10" d="M23.7,30.1c0,1.1,0,2.1,0,3.2c0,0.8,0.3,0.9,1,0.7
		c0.4-0.1,0.8-0.3,1.2-0.4c0.6-0.3,0.7-0.7,0.2-1.2c-0.6-0.6-1.2-1.2-1.9-1.9C24.1,30.3,23.9,30.2,23.7,30.1z"/>
	<path fill="none" stroke="#000000" stroke-width="2" stroke-miterlimit="10" d="M6.5,23.5c-0.1-0.1-0.3-0.1-0.4-0.3
		c-0.3-0.3-0.5-0.5-0.8-0.8c-1.1-1.1-2.3-2.3-3.4-3.4c0,0-0.1-0.1-0.1-0.1c-0.5-0.5-0.5-1,0-1.5c0.4-0.4,0.7-0.7,1.1-1.1
		c1-1,1.9-1.9,2.9-2.9c0.2-0.2,0.5-0.4,0.8-0.5c0,0,0.1,0,0.2,0c0.5,0.2,0.9,0.6,1.3,1c1.2,1.1,2.3,2.3,3.5,3.4c0,0,0,0,0,0
		c0.5,0.5,0.5,1,0,1.5c-0.7,0.7-1.5,1.5-2.2,2.2c-0.7,0.7-1.3,1.3-2,2C7,23.3,6.9,23.5,6.5,23.5z"/>
	<path fill="none" stroke="#000000" stroke-width="2" stroke-miterlimit="10" d="M17.8,24.2c0.3,0,0.5,0.1,0.6,0.3
		c0.5,0.5,1,1,1.5,1.5c1,1,1.9,1.9,2.9,2.9c0.1,0.1,0.1,0.1,0.2,0.2c0.3,0.3,0.3,0.6,0,0.9c-0.2,0.2-0.4,0.4-0.7,0.7
		c-1.2,1.2-2.5,2.5-3.7,3.7c-0.2,0.2-0.4,0.4-0.6,0.5c0,0-0.2,0-0.2,0c-0.2-0.2-0.5-0.4-0.7-0.6c-1.4-1.4-2.8-2.8-4.2-4.1
		c-0.1-0.1-0.2-0.2-0.2-0.3c-0.2-0.3-0.2-0.6,0-0.8c0.3-0.3,0.6-0.6,0.9-0.9c1.2-1.2,2.4-2.4,3.6-3.6C17.3,24.5,17.5,24.2,17.8,24.2
		z"/>
	<path fill="none" stroke="#000000" stroke-width="2" stroke-miterlimit="10" d="M6.7,26.8c0-0.6,0-1.3,0-1.9C6.7,24.3,7,24,7.6,24
		c1.2,0,2.4,0,3.6,0c0.6,0,1.1,0.5,1.1,1.1c0,1.2,0,2.3,0,3.5c0,0.5-0.4,0.9-0.9,0.9c-0.7,0-1.4,0-2.2,0c-0.6,0-1.1,0-1.7,0
		c-0.5,0-0.8-0.3-0.8-0.8C6.7,28.1,6.7,27.4,6.7,26.8C6.7,26.8,6.7,26.8,6.7,26.8z"/>
</g>
</svg>
